PathFileType	4	(X/Y/Z)	C:/Users/opensim2020/Desktop/walking_exp_matlab/subject06_walking18_straight_03.trc																																																																																																																																											
DataRate	CameraRate	NumFrames	NumMarkers	Units	OrigDataRate	OrigDataStartFrame	OrigNumFrames																																																																																																																																							
100	100	8	47	mm	100	3315	309																																																																																																																																							
Frame#	Time	LFHD			RFHD			LBHD			RBHD			C7			T10			CLAV			STRN			RBAK			LSHO			LUPA			LELB			LFRM			LWRA			LWRB			LFIN			RSHO			RUPA			RELB			RFRM			RWRA			RWRB			RFIN			LASI			RASI			LPSI			RPSI			LTHI			LKNE			LTIB			LANK			LHEE			LTOE			RTHI			RKNE			RTIB			RANK			RHEE			RTOE			*39			*40			*41			*42			*43			*44			*45			*46		
		X1	Y1	Z1	X2	Y2	Z2	X3	Y3	Z3	X4	Y4	Z4	X5	Y5	Z5	X6	Y6	Z6	X7	Y7	Z7	X8	Y8	Z8	X9	Y9	Z9	X10	Y10	Z10	X11	Y11	Z11	X12	Y12	Z12	X13	Y13	Z13	X14	Y14	Z14	X15	Y15	Z15	X16	Y16	Z16	X17	Y17	Z17	X18	Y18	Z18	X19	Y19	Z19	X20	Y20	Z20	X21	Y21	Z21	X22	Y22	Z22	X23	Y23	Z23	X24	Y24	Z24	X25	Y25	Z25	X26	Y26	Z26	X27	Y27	Z27	X28	Y28	Z28	X29	Y29	Z29	X30	Y30	Z30	X31	Y31	Z31	X32	Y32	Z32	X33	Y33	Z33	X34	Y34	Z34	X35	Y35	Z35	X36	Y36	Z36	X37	Y37	Z37	X38	Y38	Z38	X39	Y39	Z39	X40	Y40	Z40	X41	Y41	Z41	X42	Y42	Z42	X43	Y43	Z43	X44	Y44	Z44	X45	Y45	Z45	X46	Y46	Z46	X47	Y47	Z47
																																																																																																																																														
1	0	-689.52045	1671.60693	1348.86841	-701.34869	1660.70911	1479.86731	-821.85913	1614.86768	1336.63306	-831.81067	1609.28064	1465.84265	-826.97101	1460.49646	1391.17737	-867.98627	1132.13501	1395.01904	-720.20331	1380.2627	1406.97534	-685.67371	1203.77344	1408.29004	-912.99341	1292.95752	1462.36218	-751.38416	1411.57031	1239.97046	-734.09491	1213.66797	1159.7771	-726.09418	1102.16748	1140.26929	-658.88452	966.18121	1129.9939	-578.9032	876.53186	1191.40369	-624.07343	852.52551	1141.55701	-558.95636	790.9986	1154.27942	-783.06958	1415.88501	1559.85181	-836.41888	1221.20361	1646.34167	-830.52759	1099.50195	1661.9375	-805.6449	982.58838	1680.47974	-727.86285	852.27228	1651.07861	-783.64508	847.08722	1688.8573	-738.30341	776.14795	1692.43164	-678.6662	966.73352	1320.00989	-714.20667	980.07977	1537.62207	-838.50848	998.83929	1324.1073	-860.96881	1002.44318	1491.33374	-757.98065	654.414	1260.3501	-778.62988	491.24301	1281.45837	-833.23694	239.50182	1291.76489	-852.1524	70.17464	1342.4281	-896.60126	58.92114	1384.57861	-708.47797	39.56989	1352.7981	-697.88147	654.64124	1596.11938	-651.95111	536.87256	1575.91406	-754.9989	298.15137	1566.85559	-822.06549	125.05661	1522.276	-861.04449	109.60864	1471.88306	-688.86224	49.0546	1542.83752	-795.64954	1708.16272	1398.47791	NaN	NaN	NaN	NaN	NaN	NaN	NaN	NaN	NaN	NaN	NaN	NaN	NaN	NaN	NaN	NaN	NaN	NaN	NaN	NaN	NaN
2	0.01	-685.21741	1671.22095	1348.50793	-696.66949	1660.547	1479.48865	-816.8985	1614.60059	1336.03845	-827.08539	1609.03687	1465.2478	-821.98572	1460.31079	1390.56287	-863.31061	1131.97864	1394.45996	-715.36981	1380.12451	1406.64453	-680.86963	1203.59363	1407.96924	-908.33533	1292.73853	1461.5365	-746.02747	1411.34485	1239.47668	-727.8877	1213.49817	1159.16211	-718.73688	1102.00305	1139.56909	-649.08759	967.16504	1129.88843	-567.36499	879.61505	1191.65417	-612.4776	854.27325	1142.38989	-546.04303	794.21442	1155.21338	-778.59155	1415.60925	1559.35669	-832.28168	1220.89233	1645.53833	-826.48053	1099.15234	1661.12561	-801.74231	982.24896	1679.64014	-724.10443	851.91779	1650.50208	-779.8866	846.67938	1688.05225	-734.57623	775.76538	1691.85876	-674.28888	966.40546	1319.49231	-709.38812	980.211	1537.40845	-834.14185	998.40448	1323.70667	-856.13135	1002.19098	1490.99048	-754.36658	654.04694	1260.5542	-775.67987	490.95477	1281.72351	-831.7771	239.43443	1291.98523	-851.90686	70.32697	1342.57336	-896.32715	59.09966	1384.83594	-708.43463	39.54155	1352.8988	-692.41907	655.01575	1595.77161	-645.45502	537.60248	1575.44897	-740.67041	295.05566	1566.71179	-801.5188	119.78555	1521.81165	-840.50244	103.35645	1471.65149	-665.52533	48.47518	1540.91614	-790.85071	1707.92908	1397.92786	NaN	NaN	NaN	NaN	NaN	NaN	NaN	NaN	NaN	NaN	NaN	NaN	NaN	NaN	NaN	NaN	NaN	NaN	NaN	NaN	NaN
3	0.02	-679.88959	1671.0968	1348.21423	-692.00555	1660.31018	1479.15613	-811.99823	1614.29272	1335.55493	-822.37354	1608.73059	1464.75598	-817.07813	1460.09998	1390.04675	-858.65814	1131.78564	1393.93713	-710.69904	1379.84167	1406.30078	-676.21375	1203.33215	1407.57581	-903.65576	1292.57849	1460.87366	-740.73621	1411.19226	1239.12012	-721.5943	1213.31628	1158.69714	-711.51575	1101.91284	1139.03748	-639.87115	968.16034	1129.76233	-556.25751	882.57037	1192.05481	-601.25146	855.98334	1143.25	-533.53394	797.28528	1156.16431	-774.13861	1415.34814	1558.92419	-828.13605	1220.57446	1644.76428	-822.27765	1098.87488	1660.43616	-797.77423	981.92255	1678.87085	-720.11896	851.51642	1650.02148	-776.06537	846.37671	1687.40527	-730.83838	775.31274	1691.2749	-669.83813	965.95435	1318.85449	-704.52521	980.50739	1537.0271	-829.59027	997.867	1323.40723	-851.60681	1002.02405	1490.63025	-750.5542	653.7171	1260.77625	-772.62756	490.62012	1282.04407	-830.74731	239.43199	1291.93103	-851.66364	70.44965	1342.70618	-896.23584	59.34032	1384.95203	-708.52136	39.40972	1352.99854	-687.0827	655.19391	1595.56702	-639.19983	538.12128	1575.09033	-726.22211	292.01758	1566.46106	-781.23206	114.92141	1521.55823	-820.22754	97.41902	1471.77112	-642.72913	48.41461	1538.74036	-786.06732	1707.65112	1397.43799	NaN	NaN	NaN	NaN	NaN	NaN	NaN	NaN	NaN	NaN	NaN	NaN	NaN	NaN	NaN	NaN	NaN	NaN	NaN	NaN	NaN
4	0.03	-674.95947	1670.82007	1347.97729	-687.26563	1659.99585	1478.96997	-807.0722	1613.92261	1335.16333	-817.64478	1608.37317	1464.3269	-812.1554	1459.83679	1389.55981	-854.15887	1131.57813	1393.59729	-705.95178	1379.47961	1405.93408	-671.54425	1203.01746	1407.17773	-898.93683	1292.36353	1460.22668	-735.41449	1410.98328	1238.87732	-715.29358	1213.17493	1158.3634	-704.25146	1101.83032	1138.66321	-630.86578	969.26202	1129.97522	-545.47687	885.50592	1192.39014	-589.97504	857.7644	1144.12903	-521.49939	800.33643	1157.06946	-769.57208	1415.05054	1558.58948	-823.88922	1220.20178	1644.10596	-818.10675	1098.47498	1659.73853	-793.61743	981.48108	1678.30249	-716.10327	851.0033	1649.59436	-772.23285	846.01385	1686.79175	-727.0036	774.83813	1690.77173	-665.34753	965.83118	1318.35217	-699.76587	980.61102	1536.6272	-825.26892	997.32843	1323.16943	-846.92291	1001.77429	1490.44275	-746.65228	653.28864	1260.98181	-769.55127	490.39023	1282.29932	-828.95056	239.52908	1292.422	-851.44568	70.58719	1342.82178	-896.30511	59.6171	1385.23718	-708.43408	39.40269	1353.03345	-681.86469	655.263	1595.48389	-633.02808	538.39539	1574.76318	-711.75806	289.19974	1566.28259	-761.1153	110.40467	1521.52466	-800.25458	91.85067	1472.23071	-620.18964	48.81973	1536.13684	-781.25232	1707.30994	1397.07019	NaN	NaN	NaN	NaN	NaN	NaN	NaN	NaN	NaN	NaN	NaN	NaN	NaN	NaN	NaN	NaN	NaN	NaN	NaN	NaN	NaN
5	0.04	-670.04309	1670.47192	1347.84875	-682.54663	1659.63013	1478.83081	-802.14874	1613.56116	1334.85779	-812.87866	1608.00647	1464.03198	-807.30273	1459.54041	1389.18665	-849.39716	1131.22351	1393.1665	-701.1958	1379.11584	1405.67505	-666.81073	1202.69177	1406.7738	-894.25739	1292.1189	1459.77551	-730.21362	1410.67969	1238.62268	-708.99646	1212.9873	1158.25012	-697.1684	1101.76526	1138.47632	-621.64813	970.23413	1130.23853	-535.02112	888.40472	1192.83386	-579.23047	859.59705	1145.01636	-509.85898	803.24646	1158.09485	-765.00452	1414.70813	1558.25977	-819.56451	1219.78601	1643.51733	-813.83453	1098.0459	1659.14246	-789.65234	981.02271	1677.64526	-712.03247	850.45691	1649.24951	-768.24945	845.37646	1686.20996	-723.19513	774.2879	1690.42786	-661.31586	965.46185	1317.83704	-694.82129	980.67529	1536.21069	-820.22028	996.30426	1322.81763	-841.51147	1001.039	1490.14099	-742.68402	652.88306	1261.16162	-766.40967	490.02695	1282.51318	-827.54095	239.54454	1292.54944	-851.23956	70.68664	1342.89026	-896.16266	59.80585	1385.32532	-708.40826	39.38902	1353.02893	-676.6604	655.19629	1595.43945	-627.0672	538.47339	1574.35327	-697.76062	286.72028	1566.28284	-741.32855	106.32282	1521.74463	-780.68213	86.71584	1473.06091	-598.10175	49.45282	1533.3573	-776.44745	1706.98511	1396.82776	NaN	NaN	NaN	NaN	NaN	NaN	NaN	NaN	NaN	NaN	NaN	NaN	NaN	NaN	NaN	NaN	NaN	NaN	NaN	NaN	NaN
6	0.05	-665.18823	1670.08813	1347.78528	-677.77142	1659.21997	1478.74768	-797.08832	1613.18506	1334.60315	-808.10394	1607.56909	1463.76001	-802.47974	1459.19934	1388.90088	-844.97424	1131.05688	1393.00671	-696.31641	1378.81934	1405.70178	-662.0708	1202.29468	1406.4729	-889.57709	1291.87134	1459.36682	-725.10443	1410.44104	1238.50452	-702.71539	1212.85645	1158.12	-690.15442	1101.73572	1138.41467	-612.82782	971.28577	1130.56812	-524.75824	891.15369	1193.44092	-568.48022	861.35297	1145.94922	-498.58649	806.09149	1159.15796	-760.38062	1414.28821	1558.04236	-815.15387	1219.34558	1643.01013	-809.66394	1097.61902	1658.52759	-785.52612	980.52991	1677.09875	-707.95477	849.8667	1648.90369	-764.31104	844.84863	1685.67029	-719.31458	773.59003	1689.86475	-656.34412	965.19452	1317.21301	-688.13202	981.50842	1536.7627	-816.0882	995.86932	1322.81604	-837.01678	1000.89288	1490.18945	-738.74854	652.40503	1261.34509	-763.21527	489.64243	1282.68616	-826.5069	239.54398	1292.43506	-851.06073	70.73741	1343.00037	-896.11865	60.0113	1385.35693	-708.37598	39.39089	1353.01978	-671.26617	654.98871	1595.54309	-621.12659	538.31018	1573.84351	-684.22113	284.59418	1566.3009	-721.93878	102.63781	1522.15625	-761.33313	81.89487	1474.16309	-576.68292	50.27942	1530.70935	-771.5589	1706.59314	1396.65869	NaN	NaN	NaN	NaN	NaN	NaN	NaN	NaN	NaN	NaN	NaN	NaN	NaN	NaN	NaN	NaN	NaN	NaN	NaN	NaN	NaN
7	0.06	-660.19531	1669.70154	1347.85168	-673.13599	1658.71008	1478.69543	-792.22076	1612.81616	1334.48962	-803.33307	1607.13721	1463.66333	-797.66815	1458.79419	1388.75073	-840.21948	1130.69556	1392.80334	-691.42316	1378.45605	1405.61316	-657.26752	1201.91492	1406.25549	-884.81342	1291.50671	1459.05737	-720.02496	1410.15649	1238.48743	-696.5285	1212.65918	1158.20898	-683.22192	1101.61523	1138.45203	-604.27374	972.32324	1131.04187	-514.84601	893.76416	1194.18835	-558.41931	863.13031	1147.03967	-487.52286	808.8009	1160.35718	-755.729	1413.80359	1557.88306	-810.65253	1218.79443	1642.60547	-805.33875	1097.0647	1658.02112	-781.1911	979.92371	1676.7583	-703.76624	849.17224	1648.65588	-760.245	844.29889	1685.33716	-715.45593	772.99268	1689.57104	-651.67694	964.78949	1316.68738	-683.19305	981.26831	1536.06958	-811.77411	995.2749	1322.96899	-831.80219	1000.30347	1490.24573	-734.79602	651.91486	1261.53906	-760.16956	489.2644	1282.89087	-825.04614	239.49208	1292.59656	-850.87787	70.85417	1343.05774	-896.04095	60.21811	1385.39563	-708.41284	39.3252	1352.99756	-665.6825	654.79657	1595.5697	-615.25513	538.13147	1573.25085	-671.08112	282.63071	1566.51331	-702.93579	99.34743	1522.8927	-742.71576	77.92446	1475.83264	-555.92249	51.11703	1528.47058	-766.64783	1706.15369	1396.60352	NaN	NaN	NaN	NaN	NaN	NaN	NaN	NaN	NaN	NaN	NaN	NaN	NaN	NaN	NaN	NaN	NaN	NaN	NaN	NaN	NaN
8	0.07	-655.25134	1669.25366	1347.90771	-668.14069	1658.20398	1478.91187	-787.28918	1612.45264	1334.49097	-798.49457	1606.69727	1463.60754	-792.85815	1458.35059	1388.62268	-835.39728	1130.20679	1392.67651	-686.67316	1377.92419	1405.52185	-652.39093	1201.46802	1406.03955	-879.99658	1291.00488	1458.76428	-715.06866	1409.85559	1238.48462	-690.40912	1212.47241	1158.32349	-676.43842	1101.48755	1138.5708	-595.82629	973.23462	1131.66443	-505.2142	896.42163	1194.82373	-548.39929	864.83228	1148.16333	-476.80975	811.44281	1161.646	-751.03064	1413.25195	1557.83679	-806.08362	1218.18945	1642.31787	-800.85168	1096.42529	1657.64673	-776.92737	979.28693	1676.39075	-699.55597	848.40137	1648.42676	-756.16974	843.56256	1684.89819	-711.40845	772.13348	1689.19568	-646.89758	964.2547	1316.16858	-678.04797	981.05701	1535.67151	-806.96997	994.55316	1323.01965	-825.4101	999.62805	1490.28247	-730.95825	651.38849	1261.6615	-756.98749	488.82385	1283.07422	-823.3197	239.55862	1292.9613	-850.67102	70.993	1343.17786	-895.91455	60.39472	1385.50037	-708.38116	39.28574	1353.03052	-659.86597	654.61523	1595.6488	-609.3714	537.91968	1572.48767	-658.29547	280.76944	1566.94031	-684.34406	96.38811	1523.8219	-723.95703	73.71964	1477.33911	-535.66669	52.04132	1526.69995	-761.72589	1705.73743	1396.69556	NaN	NaN	NaN	NaN	NaN	NaN	NaN	NaN	NaN	NaN	NaN	NaN	NaN	NaN	NaN	NaN	NaN	NaN	NaN	NaN	NaN
